<?xml version="1.0" standalone="no"?>
<!DOCTYPE svg PUBLIC "-//W3C//DTD SVG 20010904//EN"
 "http://www.w3.org/TR/2001/REC-SVG-20010904/DTD/svg10.dtd">
<svg version="1.0" xmlns="http://www.w3.org/2000/svg"
 width="200.000000pt" height="200.000000pt" viewBox="0 0 200.000000 200.000000"
 preserveAspectRatio="xMidYMid meet">
<metadata>
Created by potrace 1.11, written by Peter Selinger 2001-2013
</metadata>
<g transform="translate(0.000000,200.000000) scale(0.100000,-0.100000)"
fill="#000000" stroke="none">
<path d="M545 1436 c-38 -17 -390 -373 -400 -404 -17 -58 -1 -81 194 -276 178
-177 192 -189 233 -193 37 -4 47 -1 71 23 40 40 45 74 18 122 -7 13 -73 83
-146 157 l-135 134 144 146 c80 80 149 158 154 173 27 80 -55 152 -133 118z"/>
<path d="M1063 1439 c-18 -5 -39 -20 -47 -32 -12 -18 -226 -579 -226 -592 0
-2 -5 -16 -11 -32 -6 -15 -10 -29 -10 -31 1 -1 -6 -16 -14 -33 -9 -17 -17 -49
-17 -72 0 -34 5 -46 31 -69 62 -56 132 -29 169 64 70 177 245 657 249 685 8
47 -14 93 -53 109 -19 8 -35 14 -36 13 -2 0 -18 -5 -35 -10z"/>
<path d="M1350 1427 c-44 -22 -63 -85 -39 -129 6 -11 73 -83 150 -159 l139
-139 -132 -132 c-163 -163 -178 -182 -178 -224 0 -66 79 -117 136 -87 31 16
371 354 399 397 13 19 15 36 10 63 -6 32 -37 68 -199 230 -176 177 -194 193
-226 193 -19 0 -46 -6 -60 -13z"/>
</g>
</svg>
